<svg id="Layer_1" data-name="Layer 1" xmlns="http://www.w3.org/2000/svg" viewBox="0 0 535.97 566.5"><defs><style>.cls-1{fill:#01426a;}.cls-2{fill:#42c31d;}</style></defs><title>TrustBridge Logo</title><path class="cls-1" d="M311.45,708H306.7c-2.38-2.38-270.42-73.66-263.29-471.92v-5.7L80,178.09l7.13-1c4.75-1,224.32-35.64,224.32-35.64S532,175.72,536.72,177.14l5.7,1L579,230.37v5.7c4.75,206.26-66.54,323.65-126.89,385.43C386.54,689,317.63,708,311.45,708Zm-231-464.8C75.73,582.53,278.66,659.52,311.93,670c34.22-10.46,235.72-87.92,231.45-428.2L521,209.94c-24.71-5.7-122.14-29.47-208.64-31.84-86.5,2.38-182.5,26.14-208.64,31.84Z" transform="translate(-43.27 -141.5)"/><path class="cls-1" d="M267,507.31h0c-9.84,2.41-19.76,1.17-29.67.6-4.52-.26-3.32-3.73-3.33-6.29-.05-25.31,0-50.62,0-75.93q-.13-54.05-.4-108.1h0c-2.3-3.09-5.62-1.58-8.45-1.66-18.65-.54-37.32.87-56-.76h0c.16-8.42.52-16.84.4-25.26-.06-4.35.87-6.52,5.86-6.51,58.55.11,117.12-.57,175.66.28,36,.52,64.32,36.59,59.71,72.36-4.24,32.89-34.6,57.12-64.13,56.18-7.31-.23-14.79,1.73-21.91-1.42h0c.34-7.07.34-21.54-.12-26.32a23.31,23.31,0,0,1-.11-3.77,8.12,8.12,0,0,1,0-1,4.35,4.35,0,0,1,1.28.1h0c6.86.06,13.72.36,20.56.13a33.32,33.32,0,0,0,25.61-12.5c8.54-10.3,6.72-37.89-6.07-47.05,0-.44-11.74-4.25-20.41-4.36-23.23-.29-46.47.22-69.7-.27-7.45-.16-9.4,2-9.36,9.36.31,54.64.16,109.27.2,163.91C266.61,495.09,266.88,501.2,267,507.31Z" transform="translate(-43.27 -141.5)"/><path class="cls-2" d="M390.75,507.77h0l-.43.32c-33.2.14-66.41.08-99.61.58-6.87.1-8.55-1.9-8.52-8.59.26-54.92.13-109.85.13-164.78,0-1.28.11-2.56,0-3.83-.17-3.43,1.12-5.23,4.85-5.1,9.18.32,18.38-.68,27.54.57q0,68.65,0,137.29c0,3.31.25,6.63.38,9.94a2.58,2.58,0,0,0,2.86,2c22-.12,44,.32,65.91-.67,10.47-.47,18.49-6.82,23-16.76,3.15-6.28,4.74-12.81,3.12-19.84-.09-3.59-1.7-6.64-3.44-9.64l-.14-.29c-4.49-7.34-20.12-16.75-20.65-17.66a58.77,58.77,0,0,0,23.31-22.92c19.51,9,29.29,25.17,33.29,45.49,2.27,11.49.11,22.62-3,33.64a8.78,8.78,0,0,1-.86,2l-.11.19a99.09,99.09,0,0,1-27,30.33l-.39.29a26.1,26.1,0,0,1-3.37,2.07l-6.26,3.23Z" transform="translate(-43.27 -141.5)"/></svg>