<?xml version="1.0" encoding="UTF-8"?>
<svg version="1.1" xmlns="http://www.w3.org/2000/svg" width="1167" height="1167">
<path d="M0 0 C1.1627948 -0.00067474 2.3255896 -0.00134949 3.52362061 -0.00204468 C81.10172623 0.06895987 157.754702 15.94179643 228.8125 47.25 C229.90675293 47.72904785 231.00100586 48.2080957 232.12841797 48.70166016 C262.01146149 61.87159209 290.98525611 77.58912675 317.8125 96.25 C318.73409912 96.88639404 318.73409912 96.88639404 319.67431641 97.53564453 C334.53448617 107.81247104 348.95684396 118.6494434 362.8125 130.25 C363.31168945 130.66427246 363.81087891 131.07854492 364.32519531 131.50537109 C372.141979 137.99373395 379.69324088 144.71592443 387.10595703 151.66113281 C388.86026626 153.2944725 390.62952286 154.9102229 392.40234375 156.5234375 C402.02947144 165.32574593 410.98208623 174.65395755 419.8125 184.25 C420.78356878 185.29583797 421.75489347 186.34143843 422.7265625 187.38671875 C427.45195176 192.51442443 431.97212463 197.76626975 436.34765625 203.1953125 C438.15335175 205.4331158 439.97229312 207.65481899 441.80859375 209.8671875 C500.00211074 280.23085553 539.6968577 366.90190143 563.8125 499.25 C564.03897217 500.96437256 564.03897217 500.96437256 564.27001953 502.71337891 C569.70448968 545.03424189 569.39719094 590.97442598 563.8125 633.25 C563.66796387 634.42771973 563.52342773 635.60543945 563.37451172 636.81884766 C553.62635435 715.87284145 527.19987287 792.18995855 485.8125 860.25 C485.2983252 861.09643066 484.78415039 861.94286133 484.25439453 862.81494141 C470.42613819 885.43604282 454.83322543 906.92630162 437.8125 927.25 C437.39291016 927.75450684 436.97332031 928.25901367 436.54101562 928.77880859 C430.33402896 936.23851921 423.95328271 943.50845081 417.33837891 950.61083984 C415.66326896 952.41030995 413.99377799 954.21491065 412.32421875 956.01953125 C396.05343518 973.57225534 396.05343518 973.57225534 387.09765625 981.24609375 C384.74805959 983.30650928 382.4627745 985.42401242 380.17944336 987.55712891 C374.86408732 992.51936418 369.47267983 997.30334204 363.796875 1001.85546875 C361.58222458 1003.63240685 359.38757619 1005.42495802 357.203125 1007.23828125 C285.94373812 1066.19427562 198.06440371 1105.82950269 45.8125 1131.25 C44.68183105 1131.33540039 43.55116211 1131.42080078 42.38623047 1131.50878906 C28.95770309 1132.45794109 15.51932589 1132.49234519 2.0625 1132.5 C0.2123378 1132.50151062 0.2123378 1132.50151062 -1.67520142 1132.50305176 C-22.65819298 1132.4915177 -43.34425426 1131.64180562 -64.1875 1129.25 C-66.06284424 1129.04117187 -66.06284424 1129.04117187 -67.97607422 1128.828125 C-123.2375452 1122.4865244 -178.64404627 1107.52012953 -229.1875 1084.25 C-230.21117676 1083.77884766 -231.23485352 1083.30769531 -232.28955078 1082.82226562 C-239.64433915 1079.40864115 -246.93146285 1075.86835901 -254.1875 1072.25 C-255.22793457 1071.73179688 -256.26836914 1071.21359375 -257.34033203 1070.6796875 C-278.13094378 1060.25710578 -298.06366588 1048.48724738 -317.1875 1035.25 C-318.21133789 1034.54278809 -318.21133789 1034.54278809 -319.25585938 1033.82128906 C-349.8217218 1012.64016618 -377.872632 988.60945987 -404.1875 962.375 C-404.68240936 961.88276947 -405.17731873 961.39053894 -405.68722534 960.88339233 C-411.40921096 955.18494665 -416.93371651 949.38477507 -422.1875 943.25 C-423.6007355 941.7051874 -425.01690409 940.16304675 -426.4375 938.625 C-430.98552765 933.58446174 -435.15442095 928.30121534 -439.30859375 922.9375 C-441.20526232 920.49218693 -443.13297275 918.07848895 -445.09765625 915.6875 C-452.4716843 906.69418761 -459.11826432 897.32904399 -465.57617188 887.65966797 C-467.16145164 885.28895414 -468.75893579 882.92690535 -470.359375 880.56640625 C-476.61750494 871.30476784 -482.59141036 861.92625049 -488.1875 852.25 C-488.53844727 851.64575195 -488.88939453 851.04150391 -489.25097656 850.41894531 C-532.55772661 775.55165962 -557.87556828 692.45000491 -564.1875 606.25 C-564.24534668 605.51458984 -564.30319336 604.77917969 -564.36279297 604.02148438 C-570.57916548 522.34166988 -557.0901662 438.50565451 -484.1875 273.25 C-483.73729492 272.51442871 -483.28708984 271.77885742 -482.82324219 271.02099609 C-468.20992448 247.20799894 -451.9195966 224.2613247 -433.64453125 203.109375 C-431.18155725 200.24308412 -428.80545832 197.3200238 -426.4375 194.375 C-423.44969581 190.70138311 -420.36537228 187.29429619 -416.95239258 184.01586914 C-415.26645238 182.32899607 -413.73113077 180.58581069 -412.19140625 178.765625 C-407.77760628 173.68824026 -403.03645726 168.9486232 -398.2722168 164.2043457 C-396.75258332 162.6900742 -395.23837483 161.1705257 -393.72460938 159.65039062 C-388.38381068 154.30593806 -382.93630641 149.15706781 -377.1875 144.25 C-375.57981627 142.79554483 -373.97510285 141.33779105 -372.375 139.875 C-367.12551145 135.14486725 -361.70381394 130.66451049 -356.1875 126.25 C-355.67767578 125.84056152 -355.16785156 125.43112305 -354.64257812 125.00927734 C-320.97052008 98.02423449 -284.72510696 75.59950401 -246.1875 56.25 C-245.34445312 55.82380371 -244.50140625 55.39760742 -243.6328125 54.95849609 C-181.77834417 23.88808029 -111.10743695 6.04464642 -42.1875 1.25 C-41.04015381 1.16459961 -39.89280762 1.07919922 -38.71069336 0.99121094 C-25.81626053 0.09128813 -12.92160948 0.0067891 0 0 Z " fill="#8BD5F5" transform="translate(581.1875,9.75)"/>
<path d="M0 0 C1.09248047 0.87398438 1.09248047 0.87398438 2.20703125 1.765625 C20.2672842 16.82110732 29.23453915 39.21909726 38.67529297 60.09228516 C40.30351959 63.66622159 41.99276428 67.20717661 43.6875 70.75 C47.04284025 77.87187416 49.95521684 85.16547742 52.80541992 92.50292969 C55.4845595 99.30840703 55.4845595 99.30840703 60 105 C65.65106647 105.33241567 69.03709005 102.9042007 73.30078125 99.5703125 C80.65071323 95.29437523 88.51103639 94.44200868 96.875 94.5 C97.83809082 94.50572021 98.80118164 94.51144043 99.79345703 94.51733398 C110.12681185 94.77623447 118.65766633 97.60775785 126.24609375 104.84765625 C135.70813805 116.45920727 136.09581818 130.70232754 135 145 C133.05714295 155.75593753 127.23855933 164.46291881 118.29296875 170.7265625 C113.79333076 173.22550966 108.92777041 174.59116307 104 176 C102.12427363 176.53914595 100.24921168 177.08061193 98.375 177.625 C97.18003906 177.95371094 97.18003906 177.95371094 95.9609375 178.2890625 C93.8026407 178.91485583 93.8026407 178.91485583 92 181 C91.2329376 186.75296799 92.97141242 191.35670313 94.734375 196.80078125 C97.36765699 205.25445239 99.22109448 213.94790173 101.20898438 222.5703125 C101.73119691 224.83452291 102.25844164 227.09757932 102.79101562 229.359375 C109.06060275 256.11791063 113.11301958 283.61256365 113.17700195 311.13720703 C113.18685875 313.01768738 113.18685875 313.01768738 113.19691467 314.93615723 C113.21646673 319.04337826 113.22828053 323.15056071 113.23828125 327.2578125 C113.24233711 328.68280937 113.24645425 330.10780606 113.25063133 331.53280258 C113.26961045 338.22299626 113.2838647 344.91317931 113.2922433 351.60339463 C113.30203342 359.2893924 113.32842951 366.97510358 113.36874419 374.66100037 C113.39897488 380.63162756 113.41371813 386.60217272 113.41702431 392.5728749 C113.41936375 396.12671808 113.42818127 399.68025245 113.45348549 403.2340126 C113.48125615 407.19662807 113.47691382 411.15886833 113.4699707 415.12158203 C113.48278076 416.28237274 113.49559082 417.44316345 113.50878906 418.63912964 C113.45323942 427.36094787 111.58732442 433.96681782 106.875 441.3125 C100.35701694 447.40539721 92.71426759 450.09184272 83.87768555 450.16113281 C82.88282639 450.17074036 81.88796722 450.1803479 80.86296082 450.19024658 C79.79830093 450.19449646 78.73364105 450.19874634 77.63671875 450.203125 C75.9777935 450.21167511 75.9777935 450.21167511 74.28535461 450.22039795 C71.94781446 450.22983228 69.61026109 450.2363757 67.27270508 450.24023438 C63.71086243 450.24993636 60.14959788 450.28097393 56.58789062 450.3125 C54.31250341 450.31903101 52.03711209 450.3242811 49.76171875 450.328125 C48.70313156 450.3404718 47.64454437 450.3528186 46.55387878 450.36553955 C37.26737903 450.33778961 30.65976667 448.38598128 23.75390625 441.953125 C21.04057812 438.93160147 19.45917083 435.76041822 18 432 C17.48050781 430.87851562 16.96101563 429.75703125 16.42578125 428.6015625 C13.82852629 421.64085465 14.52727082 413.96873778 14.47265625 406.64648438 C14.45074219 405.48052734 14.42882812 404.31457031 14.40625 403.11328125 C14.39916016 402.05923096 14.39207031 401.00518066 14.38476562 399.91918945 C13.94473822 396.5807328 12.98184516 394.69970952 11 392 C2.77961188 387.22872578 -10.76512559 389.93804708 -19.76887512 391.13510132 C-26.31221864 391.98235616 -32.865471 392.49689219 -39.4453125 392.96875 C-40.62802231 393.0544223 -41.81073212 393.1400946 -43.02928162 393.22836304 C-78.97844357 395.80361069 -114.77711248 397.29016054 -150.8125 397.25 C-151.59053608 397.24959969 -152.36857216 397.24919937 -153.17018509 397.24878693 C-184.11834322 397.23001075 -214.95462231 396.14082658 -245.8404541 394.19366455 C-248.65114021 394.01786373 -251.46214185 393.84742371 -254.27314854 393.67683887 C-267.8810627 392.84883455 -281.47853732 391.98180819 -295.04698181 390.63368225 C-307.36721915 388.63477957 -307.36721915 388.63477957 -318.62231445 391.13427734 C-320.57570829 393.77964962 -320.57968676 395.95221136 -320.84375 399.21484375 C-320.95589844 400.45943359 -321.06804687 401.70402344 -321.18359375 402.98632812 C-321.28800781 404.29021484 -321.39242187 405.59410156 -321.5 406.9375 C-323.86608877 435.69570234 -323.86608877 435.69570234 -332.25 444.3125 C-341.75773757 450.14679351 -351.97369683 450.15405866 -362.84375 450.23828125 C-363.85288452 450.246353 -364.86201904 450.25442474 -365.9017334 450.26274109 C-368.02285082 450.27648968 -370.1439895 450.28725249 -372.26513672 450.29516602 C-374.42177878 450.30672236 -376.57839145 450.32723123 -378.73486328 450.35668945 C-381.87552015 450.39949268 -385.01533724 450.41554705 -388.15625 450.42578125 C-389.10963257 450.44328934 -390.06301514 450.46079742 -391.04528809 450.47883606 C-400.35635557 450.44894276 -407.45515543 447.30215713 -414.2734375 441 C-419.04387332 435.47406529 -421.11513407 428.34286264 -421.14044189 421.14741516 C-421.14615204 420.17149414 -421.15186218 419.19557312 -421.15774536 418.19007874 C-421.15886322 417.12486496 -421.15998108 416.05965118 -421.16113281 414.9621582 C-421.16609772 413.83439972 -421.17106262 412.70664124 -421.17617798 411.54470825 C-421.19082567 407.79672636 -421.19761439 404.04878713 -421.203125 400.30078125 C-421.20595238 399.01069845 -421.20877975 397.72061565 -421.21169281 396.39143944 C-421.22516487 390.23990685 -421.23503586 384.0883931 -421.2388947 377.93684703 C-421.24288569 371.61334776 -421.25496576 365.29000079 -421.28125 358.96655273 C-421.527209 298.50110213 -421.527209 298.50110213 -418 272 C-417.85008606 270.84846939 -417.70017212 269.69693878 -417.54571533 268.51051331 C-415.07427109 249.79943511 -411.10138522 231.40860125 -407 213 C-406.78279297 212.01918457 -406.56558594 211.03836914 -406.34179688 210.02783203 C-403.45036672 197.04825108 -403.45036672 197.04825108 -401.25 190.875 C-399.93640184 187.15795026 -399.51432479 183.96634758 -400 180 C-403.48128289 177.67914474 -405.95071842 177.36931119 -410.0625 176.6875 C-420.69745299 174.73991265 -430.29861489 170.61687521 -436.625 161.5 C-444.4148763 147.98746377 -444.9211469 132.65742588 -440.96875 117.8359375 C-437.82494342 108.63269727 -431.38007072 102.11893332 -422.8125 97.625 C-412.65755146 92.70786702 -396.91986207 93.55924076 -386.421875 96.93359375 C-382.80135783 98.52778921 -379.55533893 100.63823486 -376.21875 102.75 C-373.2103354 104.44488146 -371.36251335 104.86017783 -368 104 C-360.94116058 98.62183663 -358.37533039 89.61461831 -355.4375 81.5625 C-345.38058924 54.67009386 -334.08633139 27.01394172 -314 6 C-313.38769531 5.31292969 -312.77539062 4.62585938 -312.14453125 3.91796875 C-295.37438088 -14.21095713 -268.87414248 -22.58629791 -245 -25 C-244.2692627 -25.07814941 -243.53852539 -25.15629883 -242.78564453 -25.23681641 C-53.56621032 -45.00715697 -53.56621032 -45.00715697 0 0 Z " fill="#44ACE7" transform="translate(740,354)"/>
<path d="M0 0 C1.61206082 -0.00322994 3.22412137 -0.00659516 4.83618164 -0.01008606 C8.20459671 -0.01603312 11.57298632 -0.01793098 14.94140625 -0.01733398 C18.32687808 -0.01725341 21.71221261 -0.02409255 25.09765625 -0.0378418 C52.26538013 -0.14636217 79.19905808 0.59460394 106.1875 4.04296875 C107.47785156 4.19121094 108.76820313 4.33945312 110.09765625 4.4921875 C124.00205266 6.22847253 135.90783377 9.34784174 144.94921875 20.625 C148.79463461 25.88619515 151.34253994 31.68115472 154 37.60546875 C154.55390845 38.82143724 155.10869961 40.03700396 155.66430664 41.25219727 C156.84828978 43.84658438 158.02616722 46.44362087 159.19921875 49.04296875 C161.1333923 53.32871174 163.0815647 57.60801478 165.03125 61.88671875 C166.97770401 66.15994117 168.92313767 70.43360462 170.86108398 74.71069336 C171.15966812 75.36912735 171.45825226 76.02756134 171.7658844 76.70594788 C172.35078144 77.99793657 172.93401917 79.2906779 173.51548767 80.58421326 C174.91985461 83.69904551 176.35645543 86.78938682 177.87158203 89.85205078 C178.43087402 90.99915527 178.99016602 92.14625977 179.56640625 93.328125 C180.32352905 94.84031616 180.32352905 94.84031616 181.09594727 96.38305664 C182.18796526 99.52946969 182.21078408 101.06038899 181.0625 104.16796875 C175.03567912 107.8662452 167.96879243 108.31438205 161.0625 109.16796875 C159.80824219 109.33167969 158.55398438 109.49539063 157.26171875 109.6640625 C149.62166781 110.49728953 141.92366249 110.73743289 134.25 111.10546875 C131.92453611 111.21859943 129.59912115 111.33261765 127.27375793 111.44779968 C125.57142261 111.53186886 123.86901511 111.61448513 122.16654968 111.69587708 C117.24146126 111.93695933 112.32028377 112.20998835 107.39975739 112.53197289 C82.63014109 114.15156193 57.91832475 114.60374539 33.09852219 114.60523224 C30.93396339 114.60539105 28.7694044 114.60670428 26.60484695 114.60912323 C-8.81873073 114.64777898 -44.12692135 113.66661391 -79.5 111.79296875 C-80.56482479 111.73738171 -81.62964958 111.68179466 -82.72674179 111.62452316 C-88.82569368 111.30534653 -94.92367453 110.97304842 -101.02070999 110.61907387 C-102.86352665 110.51226154 -104.70647031 110.40761513 -106.54954147 110.30528831 C-109.06173863 110.16381635 -111.57295114 110.01086242 -114.08422852 109.85400391 C-114.8132648 109.81444297 -115.54230108 109.77488203 -116.29342937 109.73412228 C-121.04567619 109.41874487 -124.89676439 108.69824513 -128.74707031 105.81103516 C-130.80098031 102.97616759 -130.07021447 100.51352155 -129.61914062 97.17871094 C-128.24392928 91.10453245 -125.67270868 85.47725446 -123.1875 79.79296875 C-122.60192949 78.42921666 -122.01697894 77.06519821 -121.43261719 75.70092773 C-119.628668 71.51087587 -117.7901995 67.33666673 -115.9375 63.16796875 C-115.64713867 62.51463562 -115.35677734 61.86130249 -115.05761719 61.18817139 C-93.72845932 13.33193021 -93.72845932 13.33193021 -79.81640625 7.96484375 C-54.56200164 0.97447938 -26.05669536 0.01255802 0 0 Z " fill="#8BD5F5" transform="translate(560.9375,386.83203125)"/>
<path d="M0 0 C1.02184387 0.25307922 2.04368774 0.50615845 3.09649658 0.76690674 C5.24866508 1.30192183 7.40008462 1.83995788 9.55078125 2.38085938 C12.80219634 3.19661966 16.057073 3.99729644 19.3125 4.796875 C52.4769955 13.03380333 52.4769955 13.03380333 60.09765625 25.48828125 C63.01561041 31.33581488 62.75183632 37.78584675 61.015625 43.953125 C58.32468638 51.23374865 53.34130553 56.38209064 46.36328125 59.6640625 C39.01474381 62.2015062 32.47556541 62.74949246 24.74609375 62.71875 C23.67369949 62.72066345 22.60130524 62.7225769 21.49641418 62.72454834 C19.23645797 62.72590399 16.9764938 62.72225107 14.71655273 62.71386719 C11.28676528 62.70319081 7.85750535 62.7137676 4.42773438 62.7265625 C2.22135303 62.72524018 0.014972 62.72267629 -2.19140625 62.71875 C-3.20322464 62.72279846 -4.21504303 62.72684692 -5.25752258 62.73101807 C-16.89233491 62.65574025 -27.65511581 61.30458268 -36.671875 53.453125 C-43.35974584 46.21430828 -44.48507635 36.82985955 -44.32446289 27.32446289 C-43.92116721 17.81788125 -41.99661216 9.2062832 -34.921875 2.453125 C-23.49087298 -5.76162735 -12.81626385 -3.21686963 0 0 Z " fill="#EEEFEF" transform="translate(450.921875,579.546875)"/>
<path d="M0 0 C0.74185547 -0.01998047 1.48371094 -0.03996094 2.24804688 -0.06054688 C8.90507037 -0.05472271 13.93439641 2.0127614 19.01953125 6.296875 C26.7117445 15.3553451 28.20026254 24.82185779 27.8125 36.4375 C26.6589734 46.24807572 22.88448842 52.27081417 16.125 59.1875 C8.2752948 65.21846162 -1.14638648 66.03193711 -10.6875 65.93359375 C-12.42290039 65.9357766 -12.42290039 65.9357766 -14.19335938 65.93800354 C-16.62372371 65.93635381 -19.0540995 65.92489752 -21.484375 65.90405273 C-25.17754069 65.87507814 -28.86926908 65.88346966 -32.5625 65.89648438 C-34.93750689 65.89024606 -37.3125093 65.88185439 -39.6875 65.87109375 C-40.77740234 65.87402939 -41.86730469 65.87696503 -42.99023438 65.87998962 C-53.6540385 65.75052612 -63.33256954 64.11431412 -71.1875 56.4375 C-77.10627682 49.48552025 -77.70782537 43.17847458 -77.53125 34.40625 C-76.93271694 27.49591382 -74.17186888 24.3777718 -69.375 19.6875 C-63.16024729 15.30061573 -56.82494949 12.79931164 -49.48046875 10.96484375 C-48.67442703 10.75565811 -47.86838531 10.54647247 -47.03791809 10.33094788 C-44.48570387 9.67049693 -41.93054769 9.02241832 -39.375 8.375 C-36.83731013 7.72274139 -34.30027502 7.06797858 -31.76325989 6.4131012 C-30.1264209 5.99184212 -28.48896356 5.57297788 -26.85087585 5.15660095 C-22.56272227 4.06507549 -18.3091511 2.90160332 -14.0625 1.65625 C-9.32740134 0.35536853 -4.89788233 -0.04755226 0 0 Z " fill="#EEEFEF" transform="translate(738.1875,576.5625)"/>
</svg>
