<svg id="Layer_1" data-name="Layer 1" xmlns="http://www.w3.org/2000/svg" viewBox="0 0 457 115.31"><defs><style>.cls-1,.cls-3{fill:#01426a;}.cls-2{fill:#42c31d;}.cls-3{font-size:50px;font-family:AgencyFB-Bold, Agency FB;font-weight:700;}</style></defs><title>TrustBridge Green BlueLogo</title><path class="cls-1" d="M64.58,301.81h-1c-.48-.48-55-15-53.59-96V204.6L17.48,194l1.45-.2c1-.2,45.66-7.25,45.66-7.25s44.89,7,45.85,7.26l1.16.2L119,204.6v1.16c1,42-13.54,65.87-25.83,78.45C79.87,297.94,65.84,301.81,64.58,301.81Zm-47-94.6c-1,69.06,40.34,84.73,47.11,86.87,7-2.13,48-17.89,47.11-87.15l-4.55-6.48c-5-1.16-24.86-6-42.46-6.48-17.61.48-37.14,5.32-42.46,6.48Z" transform="translate(-10 -186.5)"/><path class="cls-1" d="M55.54,261h0a20.16,20.16,0,0,1-6,.12c-.92-.05-.68-.76-.68-1.28,0-5.15,0-10.3,0-15.45q0-11-.08-22h0c-.47-.63-1.14-.32-1.72-.34-3.8-.11-7.6.18-11.4-.15h0c0-1.71.11-3.43.08-5.14,0-.89.18-1.33,1.19-1.32,11.92,0,23.84-.12,35.75.06,7.33.11,13.09,7.45,12.15,14.73-.86,6.69-7,11.63-13.05,11.43-1.49,0-3,.35-4.46-.29h0c.07-1.44.07-4.38,0-5.36a4.74,4.74,0,0,1,0-.77,1.65,1.65,0,0,1,0-.2.89.89,0,0,1,.26,0h0c1.4,0,2.79.07,4.18,0a6.78,6.78,0,0,0,5.21-2.54c1.74-2.1,1.37-7.71-1.24-9.58a12.68,12.68,0,0,0-4.15-.89c-4.73-.06-9.46,0-14.19-.05-1.52,0-1.91.41-1.91,1.91.06,11.12,0,22.24,0,33.36C55.46,258.48,55.51,259.72,55.54,261Z" transform="translate(-10 -186.5)"/><path class="cls-2" d="M80.72,261.06h0l-.09.07c-6.76,0-13.52,0-20.27.12-1.4,0-1.74-.39-1.73-1.75.05-11.18,0-22.36,0-33.54,0-.26,0-.52,0-.78,0-.7.23-1.06,1-1a55.38,55.38,0,0,1,5.61.12V252.2c0,.67.05,1.35.08,2a.53.53,0,0,0,.58.41c4.48,0,9,.07,13.41-.14A5.35,5.35,0,0,0,84,251.08a5.85,5.85,0,0,0,.64-4,4.12,4.12,0,0,0-.7-2l0-.06c-.91-1.49-4.09-3.41-4.2-3.59a12,12,0,0,0,4.74-4.66c4,1.83,6,5.12,6.78,9.26a14.54,14.54,0,0,1-.61,6.85,1.79,1.79,0,0,1-.18.41l0,0a20.17,20.17,0,0,1-5.5,6.17l-.08.06a5.31,5.31,0,0,1-.69.42l-1.27.66Z" transform="translate(-10 -186.5)"/><text class="cls-3" transform="translate(138.1 72.29)">TRUSTBRIDGE<tspan class="cls-2" x="232.08" y="0">.COM</tspan></text></svg>