<svg id="Layer_1" data-name="Layer 1" xmlns="http://www.w3.org/2000/svg" viewBox="0 0 479.33 522"><defs><style>.cls-1{fill:none;stroke:#fff;stroke-miterlimit:10;stroke-width:10px;}</style></defs><title>cart-shopping</title><path class="cls-1" d="M-116,96.47A63.67,63.67,0,0,0-165.45,73H-459l-.85-7.47A64.09,64.09,0,0,0-523.43,9h-26a21.4,21.4,0,0,0-21.33,21.33,21.4,21.4,0,0,0,21.33,21.33h26a21.24,21.24,0,0,1,21.12,18.77L-472.87,320a106.79,106.79,0,0,0,106,94.29h180.05A21.4,21.4,0,0,0-165.45,393a21.4,21.4,0,0,0-21.33-21.33H-366.84A64.14,64.14,0,0,1-427,329h201a106.69,106.69,0,0,0,104.53-85.76l18.77-93.65A63.79,63.79,0,0,0-116,96.47Z" transform="translate(575.79 -4)"/><path class="cls-1" d="M-378.79,478.33A42.79,42.79,0,0,1-421.45,521a42.79,42.79,0,0,1-42.67-42.67,42.79,42.79,0,0,1,42.67-42.67A42.79,42.79,0,0,1-378.79,478.33Z" transform="translate(575.79 -4)"/><path class="cls-1" d="M-186.79,478.33A42.79,42.79,0,0,1-229.45,521a42.79,42.79,0,0,1-42.67-42.67,42.79,42.79,0,0,1,42.67-42.67A42.79,42.79,0,0,1-186.79,478.33Z" transform="translate(575.79 -4)"/><path class="cls-1" d="M-376.12,124.07c0-9.39,16.3-17.07,36.22-17.07h55.78c19.92,0,36.22,7.68,36.22,17.07s-16.3,17.07-36.22,17.07H-339.9C-359.82,141.13-376.12,133.45-376.12,124.07Z" transform="translate(575.79 -4)"/><path class="cls-1" d="M-376.12,192.33c0-9.39,16.3-17.07,36.22-17.07h72.45c19.92,0,36.22,7.68,36.22,17.07s-16.3,17.07-36.22,17.07H-339.9C-359.82,209.4-376.12,201.72-376.12,192.33Z" transform="translate(575.79 -4)"/><path class="cls-1" d="M-195,260.6c0,9.39-16.3,17.07-36.22,17.07H-339.9c-19.92,0-36.22-7.68-36.22-17.07s16.3-17.07,36.22-17.07h108.67C-211.3,243.53-195,251.21-195,260.6Z" transform="translate(575.79 -4)"/></svg>