<svg id="Capa_1" data-name="Capa 1" xmlns="http://www.w3.org/2000/svg" viewBox="0 0 510.04 512"><defs><style>.cls-1{fill:#fff;}</style></defs><title>Compare Product</title><path class="cls-1" d="M-392,158.67a214,214,0,0,1,151.93,64h-66.6A21.33,21.33,0,0,0-328,244a21.33,21.33,0,0,0,21.33,21.33h88.38a39.64,39.64,0,0,0,39.61-39.61V137.34A21.33,21.33,0,0,0-200,116a21.33,21.33,0,0,0-21.33,21.33v44.33c-104.89-94.46-266.5-86-361,18.88a255.59,255.59,0,0,0-64.62,148,21.48,21.48,0,0,0,19.41,23.37q1,.09,1.93.09a21,21,0,0,0,21.1-18.73A213.62,213.62,0,0,1-392,158.67Z" transform="translate(647.02 -116)"/><path class="cls-1" d="M-158.39,372a21,21,0,0,0-21.1,18.73c-10.18,117.21-113.45,204-230.66,193.79a213,213,0,0,1-133.78-63.2h66.6A21.33,21.33,0,0,0-456,500a21.33,21.33,0,0,0-21.33-21.33h-88.38a39.59,39.59,0,0,0-39.61,39.57v88.42A21.33,21.33,0,0,0-584,628a21.33,21.33,0,0,0,21.33-21.33V562.33c104.89,94.46,266.5,86,361-18.88a255.58,255.58,0,0,0,64.63-148,21.48,21.48,0,0,0-19.41-23.37Q-157.43,372-158.39,372Z" transform="translate(647.02 -116)"/></svg>