<svg id="Layer_1" data-name="Layer 1" xmlns="http://www.w3.org/2000/svg" viewBox="0 0 512 512"><defs><style>.cls-1{fill:#fff;}</style></defs><title>shop categories</title><path class="cls-1" d="M103.5-143.49H-3.16a64.19,64.19,0,0,0-64,64,64.19,64.19,0,0,0,64,64H103.5a64.19,64.19,0,0,0,64-64A64.19,64.19,0,0,0,103.5-143.49Zm0,106.67H-3.16A42.79,42.79,0,0,1-45.83-79.49,42.79,42.79,0,0,1-3.16-122.15H103.5a42.79,42.79,0,0,1,42.67,42.67A42.79,42.79,0,0,1,103.5-36.82ZM-3.16-207.49H103.5a64.19,64.19,0,0,0,64-64,64.19,64.19,0,0,0-64-64H-3.16a64.19,64.19,0,0,0-64,64A64.19,64.19,0,0,0-3.16-207.49Zm0-106.67H103.5a42.79,42.79,0,0,1,42.67,42.67,42.79,42.79,0,0,1-42.67,42.67H-3.16a42.79,42.79,0,0,1-42.67-42.67A42.79,42.79,0,0,1-3.16-314.15ZM103.5,48.51H-3.16a64.19,64.19,0,0,0-64,64,64.19,64.19,0,0,0,64,64H103.5a64,64,0,0,0,0-128Zm0,106.67H-3.16a42.79,42.79,0,0,1-42.67-42.67A42.79,42.79,0,0,1-3.16,69.85H103.5a42.67,42.67,0,0,1,0,85.33Zm-288-213.33h-85.33A74.75,74.75,0,0,0-344.5,16.51v85.33a74.75,74.75,0,0,0,74.67,74.67h85.33a74.75,74.75,0,0,0,74.67-74.67V16.51A74.75,74.75,0,0,0-184.5-58.15Zm53.33,160a53.35,53.35,0,0,1-53.33,53.33h-85.33a53.35,53.35,0,0,1-53.33-53.33V16.51a53.35,53.35,0,0,1,53.33-53.33h85.33a53.35,53.35,0,0,1,53.33,53.33ZM-184.5-335.49h-85.33a74.75,74.75,0,0,0-74.67,74.67v85.33a74.75,74.75,0,0,0,74.67,74.67h85.33a74.75,74.75,0,0,0,74.67-74.67v-85.33A74.75,74.75,0,0,0-184.5-335.49Zm53.33,160a53.35,53.35,0,0,1-53.33,53.33h-85.33a53.35,53.35,0,0,1-53.33-53.33v-85.33a53.35,53.35,0,0,1,53.33-53.33h85.33a53.35,53.35,0,0,1,53.33,53.33Z" transform="translate(344.5 335.49)"/></svg>